<mxfile host="Electron" agent="Mozilla/5.0 (Windows NT 10.0; Win64; x64) AppleWebKit/537.36 (KHTML, like Gecko) draw.io/24.7.17 Chrome/128.0.6613.36 Electron/32.0.1 Safari/537.36" version="24.7.17">
  <diagram name="Page-1" id="Ahf6VGI3adYbDpR1b6bo">
    <mxGraphModel dx="1430" dy="825" grid="1" gridSize="10" guides="1" tooltips="1" connect="1" arrows="1" fold="1" page="1" pageScale="1" pageWidth="827" pageHeight="1169" math="0" shadow="0">
      <root>
        <mxCell id="0" />
        <mxCell id="1" parent="0" />
        <mxCell id="4HCuoSaAkxaQcdtaaDF7-113" value="" style="rounded=1;whiteSpace=wrap;html=1;dashed=1;" vertex="1" parent="1">
          <mxGeometry x="380" y="430" width="410" height="120" as="geometry" />
        </mxCell>
        <mxCell id="4HCuoSaAkxaQcdtaaDF7-1" value="CalcFields" style="rounded=1;whiteSpace=wrap;html=1;" vertex="1" parent="1">
          <mxGeometry x="270" y="470" width="95" height="40" as="geometry" />
        </mxCell>
        <mxCell id="4HCuoSaAkxaQcdtaaDF7-2" value="LTV" style="rounded=1;whiteSpace=wrap;html=1;" vertex="1" parent="1">
          <mxGeometry x="415" y="460" width="120" height="60" as="geometry" />
        </mxCell>
        <mxCell id="4HCuoSaAkxaQcdtaaDF7-3" value="CRM" style="rounded=1;whiteSpace=wrap;html=1;" vertex="1" parent="1">
          <mxGeometry x="630" y="460" width="120" height="60" as="geometry" />
        </mxCell>
        <mxCell id="4HCuoSaAkxaQcdtaaDF7-5" value="" style="endArrow=classic;html=1;rounded=0;entryX=0;entryY=0.5;entryDx=0;entryDy=0;exitX=1;exitY=0.5;exitDx=0;exitDy=0;" edge="1" parent="1" source="4HCuoSaAkxaQcdtaaDF7-2" target="4HCuoSaAkxaQcdtaaDF7-3">
          <mxGeometry width="50" height="50" relative="1" as="geometry">
            <mxPoint x="390" y="450" as="sourcePoint" />
            <mxPoint x="440" y="400" as="targetPoint" />
          </mxGeometry>
        </mxCell>
        <mxCell id="4HCuoSaAkxaQcdtaaDF7-6" value="core_positions" style="swimlane;html=1;fontStyle=0;childLayout=stackLayout;horizontal=1;startSize=26;fillColor=#008a00;horizontalStack=0;resizeParent=1;resizeLast=0;collapsible=1;marginBottom=0;swimlaneFillColor=#ffffff;align=center;rounded=0;shadow=0;comic=0;labelBackgroundColor=none;strokeWidth=1;fontFamily=Verdana;fontSize=14;fontColor=#ffffff;strokeColor=#005700;" vertex="1" parent="1">
          <mxGeometry x="55" y="560" width="190" height="296" as="geometry" />
        </mxCell>
        <mxCell id="4HCuoSaAkxaQcdtaaDF7-7" value="Id" style="shape=partialRectangle;top=0;left=0;right=0;bottom=0;html=1;align=left;verticalAlign=middle;fillColor=none;spacingLeft=60;spacingRight=4;whiteSpace=wrap;overflow=hidden;rotatable=0;points=[[0,0.5],[1,0.5]];portConstraint=eastwest;dropTarget=0;fontStyle=5;fontColor=#000000;" vertex="1" parent="4HCuoSaAkxaQcdtaaDF7-6">
          <mxGeometry y="26" width="190" height="30" as="geometry" />
        </mxCell>
        <mxCell id="4HCuoSaAkxaQcdtaaDF7-8" value="PK1" style="shape=partialRectangle;fontStyle=1;top=0;left=0;bottom=0;html=1;fillColor=none;align=left;verticalAlign=middle;spacingLeft=4;spacingRight=4;whiteSpace=wrap;overflow=hidden;rotatable=0;points=[];portConstraint=eastwest;part=1;fontColor=#000000;" vertex="1" connectable="0" parent="4HCuoSaAkxaQcdtaaDF7-7">
          <mxGeometry width="56" height="30" as="geometry" />
        </mxCell>
        <mxCell id="4HCuoSaAkxaQcdtaaDF7-9" value="LoadId" style="shape=partialRectangle;top=0;left=0;right=0;bottom=1;html=1;align=left;verticalAlign=middle;fillColor=none;spacingLeft=60;spacingRight=4;whiteSpace=wrap;overflow=hidden;rotatable=0;points=[[0,0.5],[1,0.5]];portConstraint=eastwest;dropTarget=0;fontStyle=5;fontColor=#000000;" vertex="1" parent="4HCuoSaAkxaQcdtaaDF7-6">
          <mxGeometry y="56" width="190" height="30" as="geometry" />
        </mxCell>
        <mxCell id="4HCuoSaAkxaQcdtaaDF7-10" value="PK2" style="shape=partialRectangle;fontStyle=1;top=0;left=0;bottom=0;html=1;fillColor=none;align=left;verticalAlign=middle;spacingLeft=4;spacingRight=4;whiteSpace=wrap;overflow=hidden;rotatable=0;points=[];portConstraint=eastwest;part=1;fontColor=#000000;" vertex="1" connectable="0" parent="4HCuoSaAkxaQcdtaaDF7-9">
          <mxGeometry width="56" height="30" as="geometry" />
        </mxCell>
        <mxCell id="4HCuoSaAkxaQcdtaaDF7-11" value="CounterpartyId" style="shape=partialRectangle;top=0;left=0;right=0;bottom=0;html=1;align=left;verticalAlign=top;fillColor=none;spacingLeft=60;spacingRight=4;whiteSpace=wrap;overflow=hidden;rotatable=0;points=[[0,0.5],[1,0.5]];portConstraint=eastwest;dropTarget=0;fontColor=#000000;" vertex="1" parent="4HCuoSaAkxaQcdtaaDF7-6">
          <mxGeometry y="86" width="190" height="26" as="geometry" />
        </mxCell>
        <mxCell id="4HCuoSaAkxaQcdtaaDF7-12" value="FK1" style="shape=partialRectangle;top=0;left=0;bottom=0;html=1;fillColor=none;align=left;verticalAlign=top;spacingLeft=4;spacingRight=4;whiteSpace=wrap;overflow=hidden;rotatable=0;points=[];portConstraint=eastwest;part=1;fontColor=#000000;" vertex="1" connectable="0" parent="4HCuoSaAkxaQcdtaaDF7-11">
          <mxGeometry width="56" height="26" as="geometry" />
        </mxCell>
        <mxCell id="4HCuoSaAkxaQcdtaaDF7-13" value="CounterpartyPIT" style="shape=partialRectangle;top=0;left=0;right=0;bottom=0;html=1;align=left;verticalAlign=top;fillColor=none;spacingLeft=60;spacingRight=4;whiteSpace=wrap;overflow=hidden;rotatable=0;points=[[0,0.5],[1,0.5]];portConstraint=eastwest;dropTarget=0;fontColor=#000000;" vertex="1" parent="4HCuoSaAkxaQcdtaaDF7-6">
          <mxGeometry y="112" width="190" height="26" as="geometry" />
        </mxCell>
        <mxCell id="4HCuoSaAkxaQcdtaaDF7-14" value="FK2" style="shape=partialRectangle;top=0;left=0;bottom=0;html=1;fillColor=none;align=left;verticalAlign=top;spacingLeft=4;spacingRight=4;whiteSpace=wrap;overflow=hidden;rotatable=0;points=[];portConstraint=eastwest;part=1;fontColor=#000000;" vertex="1" connectable="0" parent="4HCuoSaAkxaQcdtaaDF7-13">
          <mxGeometry width="56" height="26" as="geometry" />
        </mxCell>
        <mxCell id="4HCuoSaAkxaQcdtaaDF7-15" value="SecurityId" style="shape=partialRectangle;top=0;left=0;right=0;bottom=0;html=1;align=left;verticalAlign=top;fillColor=none;spacingLeft=60;spacingRight=4;whiteSpace=wrap;overflow=hidden;rotatable=0;points=[[0,0.5],[1,0.5]];portConstraint=eastwest;dropTarget=0;fontColor=#000000;" vertex="1" parent="4HCuoSaAkxaQcdtaaDF7-6">
          <mxGeometry y="138" width="190" height="26" as="geometry" />
        </mxCell>
        <mxCell id="4HCuoSaAkxaQcdtaaDF7-16" value="FK3" style="shape=partialRectangle;top=0;left=0;bottom=0;html=1;fillColor=none;align=left;verticalAlign=top;spacingLeft=4;spacingRight=4;whiteSpace=wrap;overflow=hidden;rotatable=0;points=[];portConstraint=eastwest;part=1;fontColor=#000000;" vertex="1" connectable="0" parent="4HCuoSaAkxaQcdtaaDF7-15">
          <mxGeometry width="56" height="26" as="geometry" />
        </mxCell>
        <mxCell id="4HCuoSaAkxaQcdtaaDF7-17" value="SecurityPIT" style="shape=partialRectangle;top=0;left=0;right=0;bottom=0;html=1;align=left;verticalAlign=top;fillColor=none;spacingLeft=60;spacingRight=4;whiteSpace=wrap;overflow=hidden;rotatable=0;points=[[0,0.5],[1,0.5]];portConstraint=eastwest;dropTarget=0;fontColor=#000000;" vertex="1" parent="4HCuoSaAkxaQcdtaaDF7-6">
          <mxGeometry y="164" width="190" height="26" as="geometry" />
        </mxCell>
        <mxCell id="4HCuoSaAkxaQcdtaaDF7-18" value="FK4" style="shape=partialRectangle;top=0;left=0;bottom=0;html=1;fillColor=none;align=left;verticalAlign=top;spacingLeft=4;spacingRight=4;whiteSpace=wrap;overflow=hidden;rotatable=0;points=[];portConstraint=eastwest;part=1;fontColor=#000000;" vertex="1" connectable="0" parent="4HCuoSaAkxaQcdtaaDF7-17">
          <mxGeometry width="56" height="26" as="geometry" />
        </mxCell>
        <mxCell id="4HCuoSaAkxaQcdtaaDF7-19" value="DerivativeId" style="shape=partialRectangle;top=0;left=0;right=0;bottom=0;html=1;align=left;verticalAlign=top;fillColor=none;spacingLeft=60;spacingRight=4;whiteSpace=wrap;overflow=hidden;rotatable=0;points=[[0,0.5],[1,0.5]];portConstraint=eastwest;dropTarget=0;fontColor=#000000;" vertex="1" parent="4HCuoSaAkxaQcdtaaDF7-6">
          <mxGeometry y="190" width="190" height="26" as="geometry" />
        </mxCell>
        <mxCell id="4HCuoSaAkxaQcdtaaDF7-20" value="FK5" style="shape=partialRectangle;top=0;left=0;bottom=0;html=1;fillColor=none;align=left;verticalAlign=top;spacingLeft=4;spacingRight=4;whiteSpace=wrap;overflow=hidden;rotatable=0;points=[];portConstraint=eastwest;part=1;fontColor=#000000;" vertex="1" connectable="0" parent="4HCuoSaAkxaQcdtaaDF7-19">
          <mxGeometry width="56" height="26" as="geometry" />
        </mxCell>
        <mxCell id="4HCuoSaAkxaQcdtaaDF7-21" value="DerivativeSwapId" style="shape=partialRectangle;top=0;left=0;right=0;bottom=0;html=1;align=left;verticalAlign=top;fillColor=none;spacingLeft=60;spacingRight=4;whiteSpace=wrap;overflow=hidden;rotatable=0;points=[[0,0.5],[1,0.5]];portConstraint=eastwest;dropTarget=0;fontColor=#000000;" vertex="1" parent="4HCuoSaAkxaQcdtaaDF7-6">
          <mxGeometry y="216" width="190" height="26" as="geometry" />
        </mxCell>
        <mxCell id="4HCuoSaAkxaQcdtaaDF7-22" value="FK6" style="shape=partialRectangle;top=0;left=0;bottom=0;html=1;fillColor=none;align=left;verticalAlign=top;spacingLeft=4;spacingRight=4;whiteSpace=wrap;overflow=hidden;rotatable=0;points=[];portConstraint=eastwest;part=1;fontColor=#000000;" vertex="1" connectable="0" parent="4HCuoSaAkxaQcdtaaDF7-21">
          <mxGeometry width="56" height="26" as="geometry" />
        </mxCell>
        <mxCell id="4HCuoSaAkxaQcdtaaDF7-23" value="CollateralHolderId" style="shape=partialRectangle;top=0;left=0;right=0;bottom=0;html=1;align=left;verticalAlign=top;fillColor=none;spacingLeft=60;spacingRight=4;whiteSpace=wrap;overflow=hidden;rotatable=0;points=[[0,0.5],[1,0.5]];portConstraint=eastwest;dropTarget=0;fontColor=#000000;" vertex="1" parent="4HCuoSaAkxaQcdtaaDF7-6">
          <mxGeometry y="242" width="190" height="26" as="geometry" />
        </mxCell>
        <mxCell id="4HCuoSaAkxaQcdtaaDF7-24" value="FK7" style="shape=partialRectangle;top=0;left=0;bottom=0;html=1;fillColor=none;align=left;verticalAlign=top;spacingLeft=4;spacingRight=4;whiteSpace=wrap;overflow=hidden;rotatable=0;points=[];portConstraint=eastwest;part=1;fontColor=#000000;" vertex="1" connectable="0" parent="4HCuoSaAkxaQcdtaaDF7-23">
          <mxGeometry width="56" height="26" as="geometry" />
        </mxCell>
        <mxCell id="4HCuoSaAkxaQcdtaaDF7-25" value="CollateralHolderPIT" style="shape=partialRectangle;top=0;left=0;right=0;bottom=0;html=1;align=left;verticalAlign=top;fillColor=none;spacingLeft=60;spacingRight=4;whiteSpace=wrap;overflow=hidden;rotatable=0;points=[[0,0.5],[1,0.5]];portConstraint=eastwest;dropTarget=0;fontColor=#000000;" vertex="1" parent="4HCuoSaAkxaQcdtaaDF7-6">
          <mxGeometry y="268" width="190" height="26" as="geometry" />
        </mxCell>
        <mxCell id="4HCuoSaAkxaQcdtaaDF7-26" value="FK8" style="shape=partialRectangle;top=0;left=0;bottom=0;html=1;fillColor=none;align=left;verticalAlign=top;spacingLeft=4;spacingRight=4;whiteSpace=wrap;overflow=hidden;rotatable=0;points=[];portConstraint=eastwest;part=1;fontColor=#000000;" vertex="1" connectable="0" parent="4HCuoSaAkxaQcdtaaDF7-25">
          <mxGeometry width="56" height="26" as="geometry" />
        </mxCell>
        <mxCell id="4HCuoSaAkxaQcdtaaDF7-27" value="core_positions_calc_ltv" style="swimlane;html=1;fontStyle=0;childLayout=stackLayout;horizontal=1;startSize=26;fillColor=#1ba1e2;horizontalStack=0;resizeParent=1;resizeLast=0;collapsible=1;marginBottom=0;swimlaneFillColor=#ffffff;align=center;rounded=0;shadow=0;comic=0;labelBackgroundColor=none;strokeWidth=1;fontFamily=Verdana;fontSize=14;fontColor=#ffffff;strokeColor=#006EAF;" vertex="1" parent="1">
          <mxGeometry x="380" y="560" width="190" height="190" as="geometry" />
        </mxCell>
        <mxCell id="4HCuoSaAkxaQcdtaaDF7-28" value="Id" style="shape=partialRectangle;top=0;left=0;right=0;bottom=0;html=1;align=left;verticalAlign=middle;fillColor=none;spacingLeft=60;spacingRight=4;whiteSpace=wrap;overflow=hidden;rotatable=0;points=[[0,0.5],[1,0.5]];portConstraint=eastwest;dropTarget=0;fontStyle=5;fontColor=#000000;" vertex="1" parent="4HCuoSaAkxaQcdtaaDF7-27">
          <mxGeometry y="26" width="190" height="30" as="geometry" />
        </mxCell>
        <mxCell id="4HCuoSaAkxaQcdtaaDF7-29" value="PK1" style="shape=partialRectangle;fontStyle=1;top=0;left=0;bottom=0;html=1;fillColor=none;align=left;verticalAlign=middle;spacingLeft=4;spacingRight=4;whiteSpace=wrap;overflow=hidden;rotatable=0;points=[];portConstraint=eastwest;part=1;fontColor=#000000;" vertex="1" connectable="0" parent="4HCuoSaAkxaQcdtaaDF7-28">
          <mxGeometry width="56" height="30" as="geometry" />
        </mxCell>
        <mxCell id="4HCuoSaAkxaQcdtaaDF7-30" value="LoadCollectionId" style="shape=partialRectangle;top=0;left=0;right=0;bottom=1;html=1;align=left;verticalAlign=middle;fillColor=none;spacingLeft=60;spacingRight=4;whiteSpace=wrap;overflow=hidden;rotatable=0;points=[[0,0.5],[1,0.5]];portConstraint=eastwest;dropTarget=0;fontStyle=5;fontColor=#000000;" vertex="1" parent="4HCuoSaAkxaQcdtaaDF7-27">
          <mxGeometry y="56" width="190" height="30" as="geometry" />
        </mxCell>
        <mxCell id="4HCuoSaAkxaQcdtaaDF7-31" value="PK2" style="shape=partialRectangle;fontStyle=1;top=0;left=0;bottom=0;html=1;fillColor=none;align=left;verticalAlign=middle;spacingLeft=4;spacingRight=4;whiteSpace=wrap;overflow=hidden;rotatable=0;points=[];portConstraint=eastwest;part=1;fontColor=#000000;" vertex="1" connectable="0" parent="4HCuoSaAkxaQcdtaaDF7-30">
          <mxGeometry width="56" height="30" as="geometry" />
        </mxCell>
        <mxCell id="4HCuoSaAkxaQcdtaaDF7-32" value="NetExposure" style="shape=partialRectangle;top=0;left=0;right=0;bottom=0;html=1;align=left;verticalAlign=top;fillColor=none;spacingLeft=60;spacingRight=4;whiteSpace=wrap;overflow=hidden;rotatable=0;points=[[0,0.5],[1,0.5]];portConstraint=eastwest;dropTarget=0;fontColor=#000000;" vertex="1" parent="4HCuoSaAkxaQcdtaaDF7-27">
          <mxGeometry y="86" width="190" height="26" as="geometry" />
        </mxCell>
        <mxCell id="4HCuoSaAkxaQcdtaaDF7-33" value="" style="shape=partialRectangle;top=0;left=0;bottom=0;html=1;fillColor=none;align=left;verticalAlign=top;spacingLeft=4;spacingRight=4;whiteSpace=wrap;overflow=hidden;rotatable=0;points=[];portConstraint=eastwest;part=1;fontColor=#000000;" vertex="1" connectable="0" parent="4HCuoSaAkxaQcdtaaDF7-32">
          <mxGeometry width="56" height="26" as="geometry" />
        </mxCell>
        <mxCell id="4HCuoSaAkxaQcdtaaDF7-34" value="LendingValue" style="shape=partialRectangle;top=0;left=0;right=0;bottom=0;html=1;align=left;verticalAlign=top;fillColor=none;spacingLeft=60;spacingRight=4;whiteSpace=wrap;overflow=hidden;rotatable=0;points=[[0,0.5],[1,0.5]];portConstraint=eastwest;dropTarget=0;fontColor=#000000;" vertex="1" parent="4HCuoSaAkxaQcdtaaDF7-27">
          <mxGeometry y="112" width="190" height="26" as="geometry" />
        </mxCell>
        <mxCell id="4HCuoSaAkxaQcdtaaDF7-35" value="" style="shape=partialRectangle;top=0;left=0;bottom=0;html=1;fillColor=none;align=left;verticalAlign=top;spacingLeft=4;spacingRight=4;whiteSpace=wrap;overflow=hidden;rotatable=0;points=[];portConstraint=eastwest;part=1;fontColor=#000000;" vertex="1" connectable="0" parent="4HCuoSaAkxaQcdtaaDF7-34">
          <mxGeometry width="56" height="26" as="geometry" />
        </mxCell>
        <mxCell id="4HCuoSaAkxaQcdtaaDF7-36" value="LTV" style="shape=partialRectangle;top=0;left=0;right=0;bottom=0;html=1;align=left;verticalAlign=top;fillColor=none;spacingLeft=60;spacingRight=4;whiteSpace=wrap;overflow=hidden;rotatable=0;points=[[0,0.5],[1,0.5]];portConstraint=eastwest;dropTarget=0;fontColor=#000000;" vertex="1" parent="4HCuoSaAkxaQcdtaaDF7-27">
          <mxGeometry y="138" width="190" height="26" as="geometry" />
        </mxCell>
        <mxCell id="4HCuoSaAkxaQcdtaaDF7-37" value="" style="shape=partialRectangle;top=0;left=0;bottom=0;html=1;fillColor=none;align=left;verticalAlign=top;spacingLeft=4;spacingRight=4;whiteSpace=wrap;overflow=hidden;rotatable=0;points=[];portConstraint=eastwest;part=1;fontColor=#000000;" vertex="1" connectable="0" parent="4HCuoSaAkxaQcdtaaDF7-36">
          <mxGeometry width="56" height="26" as="geometry" />
        </mxCell>
        <mxCell id="4HCuoSaAkxaQcdtaaDF7-38" value="..." style="shape=partialRectangle;top=0;left=0;right=0;bottom=0;html=1;align=left;verticalAlign=top;fillColor=none;spacingLeft=60;spacingRight=4;whiteSpace=wrap;overflow=hidden;rotatable=0;points=[[0,0.5],[1,0.5]];portConstraint=eastwest;dropTarget=0;fontColor=#000000;" vertex="1" parent="4HCuoSaAkxaQcdtaaDF7-27">
          <mxGeometry y="164" width="190" height="26" as="geometry" />
        </mxCell>
        <mxCell id="4HCuoSaAkxaQcdtaaDF7-39" value="" style="shape=partialRectangle;top=0;left=0;bottom=0;html=1;fillColor=none;align=left;verticalAlign=top;spacingLeft=4;spacingRight=4;whiteSpace=wrap;overflow=hidden;rotatable=0;points=[];portConstraint=eastwest;part=1;fontColor=#000000;" vertex="1" connectable="0" parent="4HCuoSaAkxaQcdtaaDF7-38">
          <mxGeometry width="56" height="26" as="geometry" />
        </mxCell>
        <mxCell id="4HCuoSaAkxaQcdtaaDF7-48" value="core_positions_crm_ltv" style="swimlane;html=1;fontStyle=0;childLayout=stackLayout;horizontal=1;startSize=26;fillColor=#1ba1e2;horizontalStack=0;resizeParent=1;resizeLast=0;collapsible=1;marginBottom=0;swimlaneFillColor=#ffffff;align=center;rounded=0;shadow=0;comic=0;labelBackgroundColor=none;strokeWidth=1;fontFamily=Verdana;fontSize=14;fontColor=#ffffff;strokeColor=#006EAF;" vertex="1" parent="1">
          <mxGeometry x="380" y="760" width="190" height="296" as="geometry" />
        </mxCell>
        <mxCell id="4HCuoSaAkxaQcdtaaDF7-49" value="LoadCollectionId" style="shape=partialRectangle;top=0;left=0;right=0;bottom=0;html=1;align=left;verticalAlign=middle;fillColor=none;spacingLeft=60;spacingRight=4;whiteSpace=wrap;overflow=hidden;rotatable=0;points=[[0,0.5],[1,0.5]];portConstraint=eastwest;dropTarget=0;fontStyle=5;fontColor=#000000;" vertex="1" parent="4HCuoSaAkxaQcdtaaDF7-48">
          <mxGeometry y="26" width="190" height="30" as="geometry" />
        </mxCell>
        <mxCell id="4HCuoSaAkxaQcdtaaDF7-50" value="PK1" style="shape=partialRectangle;fontStyle=1;top=0;left=0;bottom=0;html=1;fillColor=none;align=left;verticalAlign=middle;spacingLeft=4;spacingRight=4;whiteSpace=wrap;overflow=hidden;rotatable=0;points=[];portConstraint=eastwest;part=1;fontColor=#000000;" vertex="1" connectable="0" parent="4HCuoSaAkxaQcdtaaDF7-49">
          <mxGeometry width="56" height="30" as="geometry" />
        </mxCell>
        <mxCell id="4HCuoSaAkxaQcdtaaDF7-53" value="&lt;u&gt;&lt;b&gt;ExposureId&lt;/b&gt;&lt;/u&gt;" style="shape=partialRectangle;top=0;left=0;right=0;bottom=0;html=1;align=left;verticalAlign=top;fillColor=none;spacingLeft=60;spacingRight=4;whiteSpace=wrap;overflow=hidden;rotatable=0;points=[[0,0.5],[1,0.5]];portConstraint=eastwest;dropTarget=0;fontColor=#000000;" vertex="1" parent="4HCuoSaAkxaQcdtaaDF7-48">
          <mxGeometry y="56" width="190" height="26" as="geometry" />
        </mxCell>
        <mxCell id="4HCuoSaAkxaQcdtaaDF7-54" value="&lt;span style=&quot;font-weight: 700;&quot;&gt;PK2&lt;/span&gt;" style="shape=partialRectangle;top=0;left=0;bottom=0;html=1;fillColor=none;align=left;verticalAlign=top;spacingLeft=4;spacingRight=4;whiteSpace=wrap;overflow=hidden;rotatable=0;points=[];portConstraint=eastwest;part=1;fontColor=#000000;" vertex="1" connectable="0" parent="4HCuoSaAkxaQcdtaaDF7-53">
          <mxGeometry width="56" height="26" as="geometry" />
        </mxCell>
        <mxCell id="4HCuoSaAkxaQcdtaaDF7-55" value="&lt;b&gt;&lt;u&gt;ExposureLoadId&lt;/u&gt;&lt;/b&gt;" style="shape=partialRectangle;top=0;left=0;right=0;bottom=0;html=1;align=left;verticalAlign=top;fillColor=none;spacingLeft=60;spacingRight=4;whiteSpace=wrap;overflow=hidden;rotatable=0;points=[[0,0.5],[1,0.5]];portConstraint=eastwest;dropTarget=0;fontColor=#000000;" vertex="1" parent="4HCuoSaAkxaQcdtaaDF7-48">
          <mxGeometry y="82" width="190" height="26" as="geometry" />
        </mxCell>
        <mxCell id="4HCuoSaAkxaQcdtaaDF7-56" value="&lt;span style=&quot;font-weight: 700;&quot;&gt;PK3&lt;/span&gt;" style="shape=partialRectangle;top=0;left=0;bottom=0;html=1;fillColor=none;align=left;verticalAlign=top;spacingLeft=4;spacingRight=4;whiteSpace=wrap;overflow=hidden;rotatable=0;points=[];portConstraint=eastwest;part=1;fontColor=#000000;" vertex="1" connectable="0" parent="4HCuoSaAkxaQcdtaaDF7-55">
          <mxGeometry width="56" height="26" as="geometry" />
        </mxCell>
        <mxCell id="4HCuoSaAkxaQcdtaaDF7-57" value="&lt;b&gt;&lt;u&gt;CollateralId&lt;/u&gt;&lt;/b&gt;" style="shape=partialRectangle;top=0;left=0;right=0;bottom=0;html=1;align=left;verticalAlign=top;fillColor=none;spacingLeft=60;spacingRight=4;whiteSpace=wrap;overflow=hidden;rotatable=0;points=[[0,0.5],[1,0.5]];portConstraint=eastwest;dropTarget=0;fontColor=#000000;" vertex="1" parent="4HCuoSaAkxaQcdtaaDF7-48">
          <mxGeometry y="108" width="190" height="26" as="geometry" />
        </mxCell>
        <mxCell id="4HCuoSaAkxaQcdtaaDF7-58" value="PK4" style="shape=partialRectangle;top=0;left=0;bottom=0;html=1;fillColor=none;align=left;verticalAlign=top;spacingLeft=4;spacingRight=4;whiteSpace=wrap;overflow=hidden;rotatable=0;points=[];portConstraint=eastwest;part=1;fontColor=#000000;fontStyle=1" vertex="1" connectable="0" parent="4HCuoSaAkxaQcdtaaDF7-57">
          <mxGeometry width="56" height="26" as="geometry" />
        </mxCell>
        <mxCell id="4HCuoSaAkxaQcdtaaDF7-51" value="CollateralLoadId" style="shape=partialRectangle;top=0;left=0;right=0;bottom=1;html=1;align=left;verticalAlign=middle;fillColor=none;spacingLeft=60;spacingRight=4;whiteSpace=wrap;overflow=hidden;rotatable=0;points=[[0,0.5],[1,0.5]];portConstraint=eastwest;dropTarget=0;fontStyle=5;fontColor=#000000;" vertex="1" parent="4HCuoSaAkxaQcdtaaDF7-48">
          <mxGeometry y="134" width="190" height="30" as="geometry" />
        </mxCell>
        <mxCell id="4HCuoSaAkxaQcdtaaDF7-52" value="PK5" style="shape=partialRectangle;fontStyle=1;top=0;left=0;bottom=0;html=1;fillColor=none;align=left;verticalAlign=middle;spacingLeft=4;spacingRight=4;whiteSpace=wrap;overflow=hidden;rotatable=0;points=[];portConstraint=eastwest;part=1;fontColor=#000000;" vertex="1" connectable="0" parent="4HCuoSaAkxaQcdtaaDF7-51">
          <mxGeometry width="56" height="30" as="geometry" />
        </mxCell>
        <mxCell id="4HCuoSaAkxaQcdtaaDF7-59" value="AmountCovered" style="shape=partialRectangle;top=0;left=0;right=0;bottom=0;html=1;align=left;verticalAlign=top;fillColor=none;spacingLeft=60;spacingRight=4;whiteSpace=wrap;overflow=hidden;rotatable=0;points=[[0,0.5],[1,0.5]];portConstraint=eastwest;dropTarget=0;fontColor=#000000;" vertex="1" parent="4HCuoSaAkxaQcdtaaDF7-48">
          <mxGeometry y="164" width="190" height="26" as="geometry" />
        </mxCell>
        <mxCell id="4HCuoSaAkxaQcdtaaDF7-60" value="" style="shape=partialRectangle;top=0;left=0;bottom=0;html=1;fillColor=none;align=left;verticalAlign=top;spacingLeft=4;spacingRight=4;whiteSpace=wrap;overflow=hidden;rotatable=0;points=[];portConstraint=eastwest;part=1;fontColor=#000000;" vertex="1" connectable="0" parent="4HCuoSaAkxaQcdtaaDF7-59">
          <mxGeometry width="56" height="26" as="geometry" />
        </mxCell>
        <mxCell id="4HCuoSaAkxaQcdtaaDF7-61" value="PropertyTypeOf" style="shape=partialRectangle;top=0;left=0;right=0;bottom=0;html=1;align=left;verticalAlign=top;fillColor=none;spacingLeft=60;spacingRight=4;whiteSpace=wrap;overflow=hidden;rotatable=0;points=[[0,0.5],[1,0.5]];portConstraint=eastwest;dropTarget=0;fontColor=#000000;" vertex="1" parent="4HCuoSaAkxaQcdtaaDF7-48">
          <mxGeometry y="190" width="190" height="26" as="geometry" />
        </mxCell>
        <mxCell id="4HCuoSaAkxaQcdtaaDF7-62" value="" style="shape=partialRectangle;top=0;left=0;bottom=0;html=1;fillColor=none;align=left;verticalAlign=top;spacingLeft=4;spacingRight=4;whiteSpace=wrap;overflow=hidden;rotatable=0;points=[];portConstraint=eastwest;part=1;fontColor=#000000;" vertex="1" connectable="0" parent="4HCuoSaAkxaQcdtaaDF7-61">
          <mxGeometry width="56" height="26" as="geometry" />
        </mxCell>
        <mxCell id="4HCuoSaAkxaQcdtaaDF7-63" value="PropertyUseOf" style="shape=partialRectangle;top=0;left=0;right=0;bottom=0;html=1;align=left;verticalAlign=top;fillColor=none;spacingLeft=60;spacingRight=4;whiteSpace=wrap;overflow=hidden;rotatable=0;points=[[0,0.5],[1,0.5]];portConstraint=eastwest;dropTarget=0;fontColor=#000000;" vertex="1" parent="4HCuoSaAkxaQcdtaaDF7-48">
          <mxGeometry y="216" width="190" height="26" as="geometry" />
        </mxCell>
        <mxCell id="4HCuoSaAkxaQcdtaaDF7-64" value="" style="shape=partialRectangle;top=0;left=0;bottom=0;html=1;fillColor=none;align=left;verticalAlign=top;spacingLeft=4;spacingRight=4;whiteSpace=wrap;overflow=hidden;rotatable=0;points=[];portConstraint=eastwest;part=1;fontColor=#000000;" vertex="1" connectable="0" parent="4HCuoSaAkxaQcdtaaDF7-63">
          <mxGeometry width="56" height="26" as="geometry" />
        </mxCell>
        <mxCell id="4HCuoSaAkxaQcdtaaDF7-65" value="CARiskWeightB3F" style="shape=partialRectangle;top=0;left=0;right=0;bottom=0;html=1;align=left;verticalAlign=top;fillColor=none;spacingLeft=60;spacingRight=4;whiteSpace=wrap;overflow=hidden;rotatable=0;points=[[0,0.5],[1,0.5]];portConstraint=eastwest;dropTarget=0;fontColor=#000000;" vertex="1" parent="4HCuoSaAkxaQcdtaaDF7-48">
          <mxGeometry y="242" width="190" height="26" as="geometry" />
        </mxCell>
        <mxCell id="4HCuoSaAkxaQcdtaaDF7-66" value="" style="shape=partialRectangle;top=0;left=0;bottom=0;html=1;fillColor=none;align=left;verticalAlign=top;spacingLeft=4;spacingRight=4;whiteSpace=wrap;overflow=hidden;rotatable=0;points=[];portConstraint=eastwest;part=1;fontColor=#000000;" vertex="1" connectable="0" parent="4HCuoSaAkxaQcdtaaDF7-65">
          <mxGeometry width="56" height="26" as="geometry" />
        </mxCell>
        <mxCell id="4HCuoSaAkxaQcdtaaDF7-67" value="..." style="shape=partialRectangle;top=0;left=0;right=0;bottom=0;html=1;align=left;verticalAlign=top;fillColor=none;spacingLeft=60;spacingRight=4;whiteSpace=wrap;overflow=hidden;rotatable=0;points=[[0,0.5],[1,0.5]];portConstraint=eastwest;dropTarget=0;fontColor=#000000;" vertex="1" parent="4HCuoSaAkxaQcdtaaDF7-48">
          <mxGeometry y="268" width="190" height="26" as="geometry" />
        </mxCell>
        <mxCell id="4HCuoSaAkxaQcdtaaDF7-68" value="" style="shape=partialRectangle;top=0;left=0;bottom=0;html=1;fillColor=none;align=left;verticalAlign=top;spacingLeft=4;spacingRight=4;whiteSpace=wrap;overflow=hidden;rotatable=0;points=[];portConstraint=eastwest;part=1;fontColor=#000000;" vertex="1" connectable="0" parent="4HCuoSaAkxaQcdtaaDF7-67">
          <mxGeometry width="56" height="26" as="geometry" />
        </mxCell>
        <mxCell id="4HCuoSaAkxaQcdtaaDF7-90" value="core_positions_crm_ca_b3f" style="swimlane;html=1;fontStyle=0;childLayout=stackLayout;horizontal=1;startSize=26;fillColor=#1ba1e2;horizontalStack=0;resizeParent=1;resizeLast=0;collapsible=1;marginBottom=0;swimlaneFillColor=#ffffff;align=center;rounded=0;shadow=0;comic=0;labelBackgroundColor=none;strokeWidth=1;fontFamily=Verdana;fontSize=14;fontColor=#ffffff;strokeColor=#006EAF;" vertex="1" parent="1">
          <mxGeometry x="587.5" y="560" width="205" height="296" as="geometry" />
        </mxCell>
        <mxCell id="4HCuoSaAkxaQcdtaaDF7-91" value="LoadCollectionId" style="shape=partialRectangle;top=0;left=0;right=0;bottom=0;html=1;align=left;verticalAlign=middle;fillColor=none;spacingLeft=60;spacingRight=4;whiteSpace=wrap;overflow=hidden;rotatable=0;points=[[0,0.5],[1,0.5]];portConstraint=eastwest;dropTarget=0;fontStyle=5;fontColor=#000000;" vertex="1" parent="4HCuoSaAkxaQcdtaaDF7-90">
          <mxGeometry y="26" width="205" height="30" as="geometry" />
        </mxCell>
        <mxCell id="4HCuoSaAkxaQcdtaaDF7-92" value="PK1" style="shape=partialRectangle;fontStyle=1;top=0;left=0;bottom=0;html=1;fillColor=none;align=left;verticalAlign=middle;spacingLeft=4;spacingRight=4;whiteSpace=wrap;overflow=hidden;rotatable=0;points=[];portConstraint=eastwest;part=1;fontColor=#000000;" vertex="1" connectable="0" parent="4HCuoSaAkxaQcdtaaDF7-91">
          <mxGeometry width="56" height="30" as="geometry" />
        </mxCell>
        <mxCell id="4HCuoSaAkxaQcdtaaDF7-93" value="&lt;u&gt;&lt;b&gt;ExposureId&lt;/b&gt;&lt;/u&gt;" style="shape=partialRectangle;top=0;left=0;right=0;bottom=0;html=1;align=left;verticalAlign=top;fillColor=none;spacingLeft=60;spacingRight=4;whiteSpace=wrap;overflow=hidden;rotatable=0;points=[[0,0.5],[1,0.5]];portConstraint=eastwest;dropTarget=0;fontColor=#000000;" vertex="1" parent="4HCuoSaAkxaQcdtaaDF7-90">
          <mxGeometry y="56" width="205" height="26" as="geometry" />
        </mxCell>
        <mxCell id="4HCuoSaAkxaQcdtaaDF7-94" value="&lt;span style=&quot;font-weight: 700;&quot;&gt;PK2&lt;/span&gt;" style="shape=partialRectangle;top=0;left=0;bottom=0;html=1;fillColor=none;align=left;verticalAlign=top;spacingLeft=4;spacingRight=4;whiteSpace=wrap;overflow=hidden;rotatable=0;points=[];portConstraint=eastwest;part=1;fontColor=#000000;" vertex="1" connectable="0" parent="4HCuoSaAkxaQcdtaaDF7-93">
          <mxGeometry width="56" height="26" as="geometry" />
        </mxCell>
        <mxCell id="4HCuoSaAkxaQcdtaaDF7-95" value="&lt;b&gt;&lt;u&gt;ExposureLoadId&lt;/u&gt;&lt;/b&gt;" style="shape=partialRectangle;top=0;left=0;right=0;bottom=0;html=1;align=left;verticalAlign=top;fillColor=none;spacingLeft=60;spacingRight=4;whiteSpace=wrap;overflow=hidden;rotatable=0;points=[[0,0.5],[1,0.5]];portConstraint=eastwest;dropTarget=0;fontColor=#000000;" vertex="1" parent="4HCuoSaAkxaQcdtaaDF7-90">
          <mxGeometry y="82" width="205" height="26" as="geometry" />
        </mxCell>
        <mxCell id="4HCuoSaAkxaQcdtaaDF7-96" value="&lt;span style=&quot;font-weight: 700;&quot;&gt;PK3&lt;/span&gt;" style="shape=partialRectangle;top=0;left=0;bottom=0;html=1;fillColor=none;align=left;verticalAlign=top;spacingLeft=4;spacingRight=4;whiteSpace=wrap;overflow=hidden;rotatable=0;points=[];portConstraint=eastwest;part=1;fontColor=#000000;" vertex="1" connectable="0" parent="4HCuoSaAkxaQcdtaaDF7-95">
          <mxGeometry width="56" height="26" as="geometry" />
        </mxCell>
        <mxCell id="4HCuoSaAkxaQcdtaaDF7-97" value="&lt;b&gt;&lt;u&gt;CollateralId&lt;/u&gt;&lt;/b&gt;" style="shape=partialRectangle;top=0;left=0;right=0;bottom=0;html=1;align=left;verticalAlign=top;fillColor=none;spacingLeft=60;spacingRight=4;whiteSpace=wrap;overflow=hidden;rotatable=0;points=[[0,0.5],[1,0.5]];portConstraint=eastwest;dropTarget=0;fontColor=#000000;" vertex="1" parent="4HCuoSaAkxaQcdtaaDF7-90">
          <mxGeometry y="108" width="205" height="26" as="geometry" />
        </mxCell>
        <mxCell id="4HCuoSaAkxaQcdtaaDF7-98" value="PK4" style="shape=partialRectangle;top=0;left=0;bottom=0;html=1;fillColor=none;align=left;verticalAlign=top;spacingLeft=4;spacingRight=4;whiteSpace=wrap;overflow=hidden;rotatable=0;points=[];portConstraint=eastwest;part=1;fontColor=#000000;fontStyle=1" vertex="1" connectable="0" parent="4HCuoSaAkxaQcdtaaDF7-97">
          <mxGeometry width="56" height="26" as="geometry" />
        </mxCell>
        <mxCell id="4HCuoSaAkxaQcdtaaDF7-103" value="&lt;b&gt;&lt;u&gt;CollateralLTVLoadId&lt;/u&gt;&lt;/b&gt;" style="shape=partialRectangle;top=0;left=0;right=0;bottom=0;html=1;align=left;verticalAlign=top;fillColor=none;spacingLeft=60;spacingRight=4;whiteSpace=wrap;overflow=hidden;rotatable=0;points=[[0,0.5],[1,0.5]];portConstraint=eastwest;dropTarget=0;fontColor=#000000;" vertex="1" parent="4HCuoSaAkxaQcdtaaDF7-90">
          <mxGeometry y="134" width="205" height="26" as="geometry" />
        </mxCell>
        <mxCell id="4HCuoSaAkxaQcdtaaDF7-104" value="PK6" style="shape=partialRectangle;top=0;left=0;bottom=0;html=1;fillColor=none;align=left;verticalAlign=top;spacingLeft=4;spacingRight=4;whiteSpace=wrap;overflow=hidden;rotatable=0;points=[];portConstraint=eastwest;part=1;fontColor=#000000;fontStyle=1" vertex="1" connectable="0" parent="4HCuoSaAkxaQcdtaaDF7-103">
          <mxGeometry width="56" height="26" as="geometry" />
        </mxCell>
        <mxCell id="4HCuoSaAkxaQcdtaaDF7-101" value="&lt;b&gt;&lt;u&gt;CollateralLTVLId&lt;/u&gt;&lt;/b&gt;" style="shape=partialRectangle;top=0;left=0;right=0;bottom=0;html=1;align=left;verticalAlign=top;fillColor=none;spacingLeft=60;spacingRight=4;whiteSpace=wrap;overflow=hidden;rotatable=0;points=[[0,0.5],[1,0.5]];portConstraint=eastwest;dropTarget=0;fontColor=#000000;" vertex="1" parent="4HCuoSaAkxaQcdtaaDF7-90">
          <mxGeometry y="160" width="205" height="26" as="geometry" />
        </mxCell>
        <mxCell id="4HCuoSaAkxaQcdtaaDF7-102" value="PK5" style="shape=partialRectangle;top=0;left=0;bottom=0;html=1;fillColor=none;align=left;verticalAlign=top;spacingLeft=4;spacingRight=4;whiteSpace=wrap;overflow=hidden;rotatable=0;points=[];portConstraint=eastwest;part=1;fontColor=#000000;fontStyle=1" vertex="1" connectable="0" parent="4HCuoSaAkxaQcdtaaDF7-101">
          <mxGeometry width="56" height="26" as="geometry" />
        </mxCell>
        <mxCell id="4HCuoSaAkxaQcdtaaDF7-99" value="CollateralLTVLoadId" style="shape=partialRectangle;top=0;left=0;right=0;bottom=1;html=1;align=left;verticalAlign=middle;fillColor=none;spacingLeft=60;spacingRight=4;whiteSpace=wrap;overflow=hidden;rotatable=0;points=[[0,0.5],[1,0.5]];portConstraint=eastwest;dropTarget=0;fontStyle=5;fontColor=#000000;" vertex="1" parent="4HCuoSaAkxaQcdtaaDF7-90">
          <mxGeometry y="186" width="205" height="30" as="geometry" />
        </mxCell>
        <mxCell id="4HCuoSaAkxaQcdtaaDF7-100" value="PK7" style="shape=partialRectangle;fontStyle=1;top=0;left=0;bottom=0;html=1;fillColor=none;align=left;verticalAlign=middle;spacingLeft=4;spacingRight=4;whiteSpace=wrap;overflow=hidden;rotatable=0;points=[];portConstraint=eastwest;part=1;fontColor=#000000;" vertex="1" connectable="0" parent="4HCuoSaAkxaQcdtaaDF7-99">
          <mxGeometry width="56" height="30" as="geometry" />
        </mxCell>
        <mxCell id="4HCuoSaAkxaQcdtaaDF7-105" value="AmountCovered" style="shape=partialRectangle;top=0;left=0;right=0;bottom=0;html=1;align=left;verticalAlign=top;fillColor=none;spacingLeft=60;spacingRight=4;whiteSpace=wrap;overflow=hidden;rotatable=0;points=[[0,0.5],[1,0.5]];portConstraint=eastwest;dropTarget=0;fontColor=#000000;" vertex="1" parent="4HCuoSaAkxaQcdtaaDF7-90">
          <mxGeometry y="216" width="205" height="26" as="geometry" />
        </mxCell>
        <mxCell id="4HCuoSaAkxaQcdtaaDF7-106" value="" style="shape=partialRectangle;top=0;left=0;bottom=0;html=1;fillColor=none;align=left;verticalAlign=top;spacingLeft=4;spacingRight=4;whiteSpace=wrap;overflow=hidden;rotatable=0;points=[];portConstraint=eastwest;part=1;fontColor=#000000;" vertex="1" connectable="0" parent="4HCuoSaAkxaQcdtaaDF7-105">
          <mxGeometry width="56" height="26" as="geometry" />
        </mxCell>
        <mxCell id="4HCuoSaAkxaQcdtaaDF7-107" value="AdaptedHaircut" style="shape=partialRectangle;top=0;left=0;right=0;bottom=0;html=1;align=left;verticalAlign=top;fillColor=none;spacingLeft=60;spacingRight=4;whiteSpace=wrap;overflow=hidden;rotatable=0;points=[[0,0.5],[1,0.5]];portConstraint=eastwest;dropTarget=0;fontColor=#000000;" vertex="1" parent="4HCuoSaAkxaQcdtaaDF7-90">
          <mxGeometry y="242" width="205" height="26" as="geometry" />
        </mxCell>
        <mxCell id="4HCuoSaAkxaQcdtaaDF7-108" value="" style="shape=partialRectangle;top=0;left=0;bottom=0;html=1;fillColor=none;align=left;verticalAlign=top;spacingLeft=4;spacingRight=4;whiteSpace=wrap;overflow=hidden;rotatable=0;points=[];portConstraint=eastwest;part=1;fontColor=#000000;" vertex="1" connectable="0" parent="4HCuoSaAkxaQcdtaaDF7-107">
          <mxGeometry width="56" height="26" as="geometry" />
        </mxCell>
        <mxCell id="4HCuoSaAkxaQcdtaaDF7-109" value="..." style="shape=partialRectangle;top=0;left=0;right=0;bottom=0;html=1;align=left;verticalAlign=top;fillColor=none;spacingLeft=60;spacingRight=4;whiteSpace=wrap;overflow=hidden;rotatable=0;points=[[0,0.5],[1,0.5]];portConstraint=eastwest;dropTarget=0;fontColor=#000000;" vertex="1" parent="4HCuoSaAkxaQcdtaaDF7-90">
          <mxGeometry y="268" width="205" height="26" as="geometry" />
        </mxCell>
        <mxCell id="4HCuoSaAkxaQcdtaaDF7-110" value="" style="shape=partialRectangle;top=0;left=0;bottom=0;html=1;fillColor=none;align=left;verticalAlign=top;spacingLeft=4;spacingRight=4;whiteSpace=wrap;overflow=hidden;rotatable=0;points=[];portConstraint=eastwest;part=1;fontColor=#000000;" vertex="1" connectable="0" parent="4HCuoSaAkxaQcdtaaDF7-109">
          <mxGeometry width="56" height="26" as="geometry" />
        </mxCell>
        <mxCell id="4HCuoSaAkxaQcdtaaDF7-115" value="" style="endArrow=classic;html=1;rounded=0;exitX=1;exitY=0.5;exitDx=0;exitDy=0;entryX=0;entryY=0.5;entryDx=0;entryDy=0;" edge="1" parent="1" source="4HCuoSaAkxaQcdtaaDF7-3" target="4HCuoSaAkxaQcdtaaDF7-116">
          <mxGeometry width="50" height="50" relative="1" as="geometry">
            <mxPoint x="800" y="480" as="sourcePoint" />
            <mxPoint x="880" y="490" as="targetPoint" />
          </mxGeometry>
        </mxCell>
        <mxCell id="4HCuoSaAkxaQcdtaaDF7-116" value="Views" style="rounded=1;whiteSpace=wrap;html=1;" vertex="1" parent="1">
          <mxGeometry x="890" y="460" width="120" height="60" as="geometry" />
        </mxCell>
        <mxCell id="4HCuoSaAkxaQcdtaaDF7-117" value="Input Table" style="rounded=1;whiteSpace=wrap;html=1;" vertex="1" parent="1">
          <mxGeometry x="90" y="460" width="120" height="60" as="geometry" />
        </mxCell>
        <mxCell id="4HCuoSaAkxaQcdtaaDF7-118" value="" style="endArrow=classic;html=1;rounded=0;entryX=0;entryY=0.5;entryDx=0;entryDy=0;exitX=1;exitY=0.5;exitDx=0;exitDy=0;" edge="1" parent="1" source="4HCuoSaAkxaQcdtaaDF7-1" target="4HCuoSaAkxaQcdtaaDF7-2">
          <mxGeometry width="50" height="50" relative="1" as="geometry">
            <mxPoint x="250" y="530" as="sourcePoint" />
            <mxPoint x="570" y="680" as="targetPoint" />
          </mxGeometry>
        </mxCell>
        <mxCell id="4HCuoSaAkxaQcdtaaDF7-119" value="" style="endArrow=classic;html=1;rounded=0;entryX=0;entryY=0.5;entryDx=0;entryDy=0;exitX=1;exitY=0.5;exitDx=0;exitDy=0;" edge="1" parent="1" source="4HCuoSaAkxaQcdtaaDF7-117" target="4HCuoSaAkxaQcdtaaDF7-1">
          <mxGeometry width="50" height="50" relative="1" as="geometry">
            <mxPoint x="220" y="500" as="sourcePoint" />
            <mxPoint x="370" y="500" as="targetPoint" />
          </mxGeometry>
        </mxCell>
        <mxCell id="4HCuoSaAkxaQcdtaaDF7-145" value="v_P_CRSABIS_re" style="rounded=0;whiteSpace=wrap;html=1;fillColor=#1ba1e2;fontColor=#ffffff;strokeColor=#006EAF;fontFamily=Verdana;fontStyle=0;fontSize=14;" vertex="1" parent="1">
          <mxGeometry x="865" y="559" width="170" height="26" as="geometry" />
        </mxCell>
        <mxCell id="4HCuoSaAkxaQcdtaaDF7-146" value="v_P_CRSABIS_nre" style="rounded=0;whiteSpace=wrap;html=1;fillColor=#1ba1e2;fontColor=#ffffff;strokeColor=#006EAF;fontFamily=Verdana;fontStyle=0;fontSize=14;" vertex="1" parent="1">
          <mxGeometry x="865" y="600" width="170" height="26" as="geometry" />
        </mxCell>
        <mxCell id="4HCuoSaAkxaQcdtaaDF7-147" value="CalcCrmCa" style="text;html=1;align=center;verticalAlign=middle;whiteSpace=wrap;rounded=0;" vertex="1" parent="1">
          <mxGeometry x="535" y="390" width="120" height="30" as="geometry" />
        </mxCell>
      </root>
    </mxGraphModel>
  </diagram>
</mxfile>
